<svg width="148" height="36" viewBox="0 0 148 36" fill="none" xmlns="http://www.w3.org/2000/svg">
<g clip-path="url(#clip0_73_2930)">
<path d="M57.9385 12.9556H62.584V27.5472H57.9385V12.9556Z" fill="#9E9E9E"/>
<path d="M63.5537 12.9557H68.0282V14.9507H68.1135C69.1966 13.3831 70.593 12.5283 72.6166 12.5283C75.8084 12.5283 77.6894 14.8082 77.6894 18.0571V27.5473H73.044V18.9976C73.044 17.4586 72.2746 16.404 70.7641 16.404C69.2251 16.404 68.1991 17.6867 68.1991 19.4821V27.5473H63.5537V12.9557Z" fill="#9E9E9E"/>
<path d="M63.0477 9.05169C63.0477 7.51263 61.8 6.26514 60.2611 6.26514C58.7222 6.26514 57.4746 7.51263 57.4746 9.05169C57.4746 10.5906 58.7222 11.8381 60.2611 11.8381C61.8 11.8381 63.0477 10.5906 63.0477 9.05169Z" fill="#9E9E9E"/>
<path d="M110.362 12.7448C110.229 12.7328 110.077 12.7275 109.899 12.7275C108.132 12.7275 106.935 13.497 105.909 15.2355H105.824V12.9555H101.378V27.547H106.023V20.9922C106.023 17.9551 107.705 16.5478 110.362 16.7934V12.7448Z" fill="#9E9E9E"/>
<path d="M133.158 18.3415C131.305 17.9997 129.653 17.8572 129.653 16.8313C129.653 15.9192 130.536 15.4918 131.676 15.4918C132.958 15.4918 133.842 15.8908 134.013 17.2017H138.288C138.06 14.3233 135.837 12.5278 131.705 12.5278C128.256 12.5278 125.406 14.1238 125.406 17.2017C125.406 20.6215 128.114 21.3055 130.65 21.7331C132.588 22.0752 134.355 22.2176 134.355 23.5285C134.355 24.469 133.471 24.982 132.075 24.982C130.674 24.982 129.747 24.3893 129.463 23.1866H125.037C125.363 26.1862 127.995 28.0029 132.104 28.0029C135.922 28.0029 138.744 26.35 138.744 23.1582C138.744 19.4247 135.723 18.7692 133.158 18.3415Z" fill="#9E9E9E"/>
<path d="M117.569 15.8337C119.079 15.8337 120.161 16.9451 120.332 18.6838H114.576C114.889 16.9451 115.801 15.8337 117.569 15.8337ZM117.825 24.6399C115.915 24.6399 114.832 23.4146 114.547 21.448H125.035C125.063 18.4843 124.208 15.9477 122.471 14.3519C121.216 13.2119 119.563 12.5278 117.482 12.5278C113.037 12.5278 109.987 15.8621 109.987 20.2227C109.987 24.6399 112.951 27.9745 117.768 27.9745C119.62 27.9745 121.102 27.49 122.328 26.635C123.61 25.7516 124.465 24.4975 124.779 23.1867H120.247C119.848 24.0986 119.05 24.6399 117.825 24.6399Z" fill="#9E9E9E"/>
<path d="M146.926 24.1065C146.71 24.115 146.421 24.1276 146.155 24.1276C145.158 24.1276 144.531 23.8425 144.531 22.7025V15.8626H146.926V12.9557H144.531V8.33887H139.999V12.9557H138.574V15.8626H139.999V23.7C139.999 26.8351 141.937 27.7184 144.645 27.7184C145.678 27.7184 146.459 27.641 146.926 27.55V24.1065Z" fill="#9E9E9E"/>
<path d="M85.9857 24.1132C85.8004 24.1203 85.5865 24.1276 85.3866 24.1276C84.3893 24.1276 83.7621 23.8425 83.7621 22.7025V15.8627H85.9857V12.9557H83.7621V8.33887H79.2308V12.9557H77.7197V15.8627H79.2308V23.7C79.2308 26.8351 81.1687 27.7184 83.8762 27.7184C84.7923 27.7184 85.5095 27.6574 85.9857 27.5801V24.1132Z" fill="#9E9E9E"/>
<path d="M96.1041 18.6841C95.9331 16.9456 94.85 15.834 93.3395 15.834C91.5726 15.834 90.6607 16.9456 90.3471 18.6841H96.1041ZM85.7588 20.223C85.7588 15.8626 88.8082 12.5283 93.2542 12.5283C95.3344 12.5283 96.9876 13.2122 98.2415 14.3522C99.9799 15.9482 100.835 18.4845 100.806 21.4485H90.3188C90.6036 23.4149 91.6866 24.6404 93.5962 24.6404C94.8215 24.6404 95.6196 24.0989 96.0184 23.187H100.55C100.236 24.4979 99.3815 25.7518 98.0989 26.6355C96.8736 27.4903 95.3916 27.9748 93.539 27.9748C88.7226 27.9748 85.7588 24.6404 85.7588 20.223Z" fill="#9E9E9E"/>
<path d="M49.8711 16.7462C51.6951 16.7462 52.7211 15.6632 52.7211 14.0386C52.7211 12.4143 51.6665 11.4168 49.8711 11.4168H46.3085V16.7462H49.8711ZM41.6055 7.17041H49.6725C52.1517 7.17041 53.9758 7.85433 55.2297 9.05136C56.5407 10.2767 57.2818 12.0153 57.2818 14.0671C57.2818 17.9716 54.5743 20.7361 50.3849 20.7361H46.3085V27.5474H41.6055V7.17041Z" fill="#9E9E9E"/>
<path d="M35.2289 17.9714C35.2289 27.6578 27.3765 35.5102 17.6902 35.5102C8.0038 35.5102 0.151367 27.6578 0.151367 17.9714C0.151367 8.28491 8.0038 0.432617 17.6902 0.432617C27.3765 0.432617 35.2289 8.28491 35.2289 17.9714Z" fill="#F2F4F7"/>
<path d="M17.6902 0.432617C8.00379 0.432617 0.151367 8.28505 0.151367 17.9714C0.151367 25.4017 4.77429 31.7537 11.2986 34.3091C11.1453 32.9214 11.0067 30.7873 11.3594 29.2724C11.6781 27.9036 13.416 20.5546 13.416 20.5546C13.416 20.5546 12.8914 19.5039 12.8914 17.9506C12.8914 15.5118 14.3049 13.6911 16.065 13.6911C17.5614 13.6911 18.284 14.8145 18.284 16.1616C18.284 17.6665 17.3259 19.9163 16.8316 22.0012C16.4183 23.7469 17.707 25.1705 19.4288 25.1705C22.5459 25.1705 24.9422 21.8837 24.9422 17.1392C24.9422 12.9397 21.9247 10.0037 17.6161 10.0037C12.6257 10.0037 9.69654 13.7468 9.69654 17.615C9.69654 19.1224 10.2772 20.7388 11.0018 21.6175C11.1452 21.7912 11.1662 21.9434 11.1235 22.1206C10.9903 22.6745 10.6945 23.8659 10.6364 24.1097C10.5599 24.4307 10.3822 24.4988 10.0498 24.3441C7.85931 23.3245 6.48976 20.1219 6.48976 17.5495C6.48976 12.017 10.5096 6.93605 18.0784 6.93605C24.1625 6.93605 28.8907 11.2716 28.8907 17.0657C28.8907 23.1102 25.0795 27.9748 19.7896 27.9748C18.0123 27.9748 16.3416 27.0515 15.7696 25.9609C15.7696 25.9609 14.8902 29.3096 14.677 30.1302C14.2811 31.6536 13.2122 33.5631 12.4972 34.7281C14.1381 35.2361 15.8821 35.5102 17.6902 35.5102C27.3766 35.5102 35.2291 27.6577 35.2291 17.9714C35.2291 8.28505 27.3766 0.432617 17.6902 0.432617Z" fill="#9E9E9E"/>
</g>
<defs>
<clipPath id="clip0_73_2930">
<rect width="147.105" height="36" fill="white"/>
</clipPath>
</defs>
</svg>
