<svg width="161" height="36" viewBox="0 0 161 36" fill="none" xmlns="http://www.w3.org/2000/svg">
<path fill-rule="evenodd" clip-rule="evenodd" d="M130.43 10.7955C131.042 11.852 131.243 13.054 131.309 14.4053L131.396 16.2064V28.8011L131.485 30.6042C131.662 33.5487 133.834 35.726 136.801 35.9112L138.595 36V16.2064L138.684 14.4053C138.757 13.0691 138.956 11.8444 139.577 10.7803C140.211 9.68896 141.121 8.78347 142.215 8.15478C143.309 7.5261 144.549 7.19635 145.811 7.19865C147.073 7.20095 148.313 7.53521 149.404 8.16788C150.496 8.80054 151.403 9.70934 152.032 10.803C152.645 11.8595 152.836 13.0842 152.909 14.4053L152.998 16.2008V28.8011L153.087 30.6042C153.272 33.5638 155.427 35.7411 158.403 35.9112L160.197 36V14.4053C160.197 10.5868 158.68 6.92454 155.981 4.22389C153.281 1.52325 149.62 0.00528842 145.801 0.00378499C143.757 0.00162961 141.737 0.43565 139.874 1.27685C138.011 2.11805 136.35 3.34706 135 4.88178C133.65 3.34767 131.988 2.11895 130.125 1.2775C128.263 0.436053 126.243 0.0011916 124.199 0.00189466C121.209 0.00189466 118.434 0.909077 116.136 2.47585C114.734 0.910966 111.597 0.00189466 109.795 0.00189466V36L111.597 35.9112C114.609 35.7127 116.786 33.5941 116.904 30.6042L117 28.8011V16.2064L117.089 14.4053C117.164 13.0464 117.353 11.852 117.968 10.7879C118.602 9.6972 119.511 8.79192 120.604 8.16247C121.698 7.53301 122.937 7.20141 124.199 7.20076C125.461 7.20103 126.702 7.5333 127.796 8.16423C128.889 8.79516 129.798 9.70258 130.43 10.7955ZM7.19886 35.9131L9 36H35.9981L35.9093 34.2045C35.6655 31.2449 33.5695 29.0827 30.6004 28.89L28.7992 28.8011H12.6023L34.197 7.19887L34.1081 5.4053C33.9683 2.41538 31.7835 0.25515 28.7992 0.0907223L26.9981 0.00945436L0 0.00189466L0.0888282 1.80303C0.325073 4.73436 2.45128 6.94184 5.39584 7.11193L7.19886 7.20076H23.3958L1.80113 28.803L1.88996 30.6042C2.06762 33.5714 4.20895 35.7203 7.19886 35.9112V35.9131ZM102.729 5.27111C104.401 6.94244 105.727 8.92671 106.631 11.1106C107.536 13.2945 108.002 15.6352 108.002 17.9991C108.002 20.3629 107.536 22.7036 106.631 24.8875C105.727 27.0714 104.401 29.0557 102.729 30.727C99.3515 34.1016 94.7725 35.9972 89.9981 35.9972C85.2237 35.9972 80.6447 34.1016 77.2673 30.727C70.2385 23.6982 70.2385 12.2999 77.2673 5.27111C78.9375 3.60034 80.9204 2.2749 83.1028 1.37048C85.2852 0.466063 87.6244 0.000373098 89.9868 4.33897e-06C92.353 -0.00163847 94.6963 0.463231 96.8827 1.36802C99.0692 2.27281 101.056 3.59977 102.729 5.273V5.27111ZM97.6354 10.3683C99.66 12.3944 100.797 15.1414 100.797 18.0057C100.797 20.8699 99.66 23.6169 97.6354 25.643C95.6094 27.6676 92.8623 28.8048 89.9981 28.8048C87.1339 28.8048 84.3868 27.6676 82.3608 25.643C80.3362 23.6169 79.199 20.8699 79.199 18.0057C79.199 15.1414 80.3362 12.3944 82.3608 10.3683C84.3868 8.34379 87.1339 7.20654 89.9981 7.20654C92.8623 7.20654 95.6094 8.34379 97.6354 10.3683ZM52.2102 4.33897e-06C54.5727 0.000621306 56.912 0.466609 59.0944 1.37136C61.2768 2.2761 63.2596 3.60189 64.9296 5.273C71.9603 12.2999 71.9603 23.7001 64.9296 30.727C61.5523 34.1016 56.9732 35.9972 52.1989 35.9972C47.4245 35.9972 42.8454 34.1016 39.4681 30.727C32.4393 23.6982 32.4393 12.2999 39.4681 5.27111C41.1382 3.60034 43.1211 2.2749 45.3035 1.37048C47.4859 0.466063 49.8251 0.000373098 52.1875 4.33897e-06H52.2102ZM59.8362 10.3646C61.8613 12.3907 62.9989 15.1382 62.9989 18.0028C62.9989 20.8675 61.8613 23.615 59.8362 25.6411C57.8101 27.6657 55.0631 28.8029 52.1989 28.8029C49.3346 28.8029 46.5876 27.6657 44.5615 25.6411C42.537 23.615 41.3997 20.868 41.3997 18.0038C41.3997 15.1396 42.537 12.3925 44.5615 10.3664C46.5876 8.3419 49.3346 7.20465 52.1989 7.20465C55.0631 7.20465 57.8101 8.3419 59.8362 10.3664V10.3646Z" fill="#9E9E9E"/>
</svg>
