<svg width="44" height="34" viewBox="0 0 44 34" fill="none" xmlns="http://www.w3.org/2000/svg">
<path d="M32.7164 18.6168L29.9186 27.4642C29.7545 27.9812 29.2759 28.3339 28.7345 28.3339H20.0198C19.1815 28.3339 18.5807 27.5166 18.8357 26.7132L21.6335 17.8692C21.7942 17.3488 22.2762 16.9995 22.8176 16.9995H31.5323C32.3706 16.9995 32.9714 17.8169 32.7164 18.6168Z" fill="#232323"/>
<path d="M43.754 1.61711L40.9562 10.4646C40.792 10.9816 40.3135 11.3308 39.7721 11.3308H18.8462C18.3677 11.3308 17.9521 11.6382 17.8019 12.0853C17.7984 12.0888 17.7949 12.0958 17.7949 12.0993V12.1028L17.5853 12.7665V12.7699C17.5853 12.7734 17.5818 12.7804 17.5784 12.7839L14.4522 22.6652L11.1445 33.1299C10.9803 33.6469 10.5018 33.9997 9.95688 33.9997H1.24562C0.40382 33.9997 -0.193459 33.1824 0.0580229 32.379L3.13177 22.6653L6.43953 12.2006C6.60368 11.6837 7.08572 11.3309 7.62711 11.3309H17.2291C17.711 11.3309 18.1372 11.0201 18.2804 10.5625L18.6716 9.32596C18.6716 9.32247 18.6751 9.31547 18.6786 9.31198L21.3472 0.866218C21.5113 0.349268 21.9898 1.41238e-09 22.5347 1.41238e-09H42.5664C43.4082 -3.92313e-05 44.009 0.817276 43.754 1.61711Z" fill="#FFDD33"/>
</svg>
