<svg width="44" height="34" viewBox="0 0 44 34" fill="none" xmlns="http://www.w3.org/2000/svg">
<path d="M32.7167 18.6172L29.9188 27.4646C29.7547 27.9816 29.2762 28.3344 28.7347 28.3344H20.0199C19.1816 28.3344 18.5809 27.5171 18.8359 26.7137L21.6337 17.8696C21.7943 17.3492 22.2764 16.9999 22.8178 16.9999H31.5326C32.3709 16.9999 32.9716 17.8173 32.7167 18.6172Z" fill="white"/>
<path d="M43.7543 1.61712L40.9565 10.4647C40.7923 10.9816 40.3138 11.3309 39.7724 11.3309H18.8464C18.3679 11.3309 17.9522 11.6383 17.802 12.0854C17.7985 12.0889 17.795 12.0958 17.795 12.0994V12.1028L17.5855 12.7665V12.77C17.5855 12.7735 17.582 12.7805 17.5785 12.784L14.4523 22.6654L11.1445 33.1302C10.9804 33.6471 10.5019 33.9999 9.95696 33.9999H1.24563C0.403823 33.9999 -0.19346 33.1826 0.0580233 32.3792L3.13179 22.6654L6.43958 12.2007C6.60373 11.6838 7.08577 11.331 7.62716 11.331H17.2292C17.7112 11.331 18.1373 11.0201 18.2805 10.5625L18.6717 9.32603C18.6717 9.32254 18.6752 9.31554 18.6787 9.31204L21.3473 0.866224C21.5115 0.349271 21.99 1.41239e-09 22.5349 1.41239e-09H42.5667C43.4085 -3.92316e-05 44.0093 0.817282 43.7543 1.61712Z" fill="#FFDD33"/>
</svg>
