<svg width="493" height="348" viewBox="0 0 493 348" fill="none" xmlns="http://www.w3.org/2000/svg">
<g opacity="0.05">
<path d="M367.803 190.552L336.35 281.109C334.505 286.401 329.125 290.011 323.038 290.011H225.066C215.642 290.011 208.888 281.646 211.754 273.423L243.208 182.901C245.014 177.574 250.433 173.999 256.52 173.999H354.492C363.916 173.999 370.67 182.365 367.803 190.552Z" fill="white"/>
<path d="M491.888 16.5518L460.435 107.109C458.59 112.401 453.21 115.975 447.124 115.975H211.872C206.493 115.975 201.82 119.121 200.131 123.698C200.092 123.734 200.053 123.805 200.053 123.841V123.876L197.697 130.67V130.705C197.697 130.741 197.658 130.812 197.618 130.848L162.474 231.987L125.288 339.098C123.442 344.389 118.063 348 111.937 348H14.0034C4.53981 348 -2.17489 339.634 0.652302 331.411L35.2078 231.988L72.3942 124.878C74.2396 119.587 79.6586 115.976 85.745 115.976H193.692C199.11 115.976 203.901 112.794 205.511 108.111L209.909 95.4548C209.909 95.4191 209.948 95.3474 209.987 95.3117L239.988 8.86607C241.833 3.57489 247.213 1.44562e-08 253.339 1.44562e-08H478.538C488.001 -0.000401547 494.755 8.36513 491.888 16.5518Z" fill="white"/>
</g>
</svg>
