<svg width="38" height="38" viewBox="0 0 38 38" fill="none" xmlns="http://www.w3.org/2000/svg">
<path fill-rule="evenodd" clip-rule="evenodd" d="M4.75004 3.16671C5.62449 3.16671 6.33337 3.87559 6.33337 4.75004V30.0834C6.33337 30.9578 7.04226 31.6667 7.91671 31.6667H33.25C34.1245 31.6667 34.8334 32.3756 34.8334 33.25C34.8334 34.1245 34.1245 34.8334 33.25 34.8334H7.91671C5.29336 34.8334 3.16671 32.7067 3.16671 30.0834V4.75004C3.16671 3.87559 3.87559 3.16671 4.75004 3.16671Z" fill="#35383F"/>
<path fill-rule="evenodd" clip-rule="evenodd" d="M34.3699 13.1306C34.9883 13.7489 34.9883 14.7514 34.3699 15.3698L27.1091 22.6306C25.2541 24.4856 22.2466 24.4856 20.3916 22.6306L16.9533 19.1923C16.335 18.5739 15.3324 18.5739 14.7141 19.1923L11.4116 22.4947C10.7933 23.1131 9.79077 23.1131 9.17244 22.4947C8.55411 21.8764 8.55411 20.8739 9.17244 20.2556L12.4749 16.9531C14.3299 15.0981 17.3375 15.0981 19.1925 16.9531L22.6308 20.3914C23.2491 21.0097 24.2516 21.0097 24.8699 20.3914L32.1308 13.1306C32.7491 12.5123 33.7516 12.5123 34.3699 13.1306Z" fill="#35383F"/>
</svg>
