<svg width="55" height="17" viewBox="0 0 55 17" fill="none" xmlns="http://www.w3.org/2000/svg">
<path d="M19.5295 16.6297L22.3084 0.327158H26.7517L23.972 16.6297H19.5295ZM40.005 0.6848C38.7299 0.222897 37.3829 -0.0088805 36.0267 0.000260178C31.6417 0.000260178 28.5525 2.20862 28.5259 5.37432C28.5018 7.71407 30.7317 9.01908 32.4152 9.79761C34.1428 10.5961 34.7234 11.1052 34.715 11.818C34.7042 12.9092 33.3352 13.4075 32.0601 13.4075C30.2834 13.4075 29.3402 13.158 27.8821 12.5533L27.3107 12.2946L26.6877 15.9394C27.724 16.3935 29.6413 16.7878 31.6309 16.8077C36.2962 16.8077 39.3247 14.6252 39.3596 11.2449C39.3762 9.39254 38.1951 7.9827 35.6333 6.82073C34.0821 6.07214 33.1322 5.56476 33.1422 4.80203C33.1422 4.12581 33.9465 3.40221 35.684 3.40221C36.8225 3.37672 37.9537 3.5892 39.0053 4.02603L39.4029 4.21399L40.005 0.6848ZM51.4202 0.327158H48.0016C46.9428 0.327158 46.1501 0.616627 45.6851 1.67297L39.1142 16.5466H43.7912C43.7912 16.5466 44.5398 14.5686 44.712 14.1344L50.3156 14.1411C50.4462 14.7034 50.8479 16.5466 50.8479 16.5466H55.0001L51.4202 0.327158ZM45.9846 10.8074C46.3514 9.86916 47.7529 6.25596 47.7529 6.25596C47.7263 6.29921 48.1172 5.31274 48.341 4.70139L48.6412 6.10544C48.6412 6.10544 49.4913 9.99226 49.6685 10.8074H45.9846ZM15.7591 0.327158L11.424 11.4054L10.9623 9.15385C10.1555 6.55875 7.64109 3.74739 4.82973 2.34004L8.79393 16.5466L13.4784 16.5416L20.4494 0.327158H15.7375" fill="white"/>
<path d="M7.1831 0.326422H0.0573869L0 0.664935C5.56783 2.01323 9.25168 5.27043 10.7813 9.18305L9.22507 1.69717C8.95641 0.666612 8.1779 0.358858 7.21389 0.323092" fill="white"/>
</svg>
