<svg width="28" height="35" viewBox="0 0 28 35" fill="none" xmlns="http://www.w3.org/2000/svg">
<path d="M26.4445 9.33356V24.8894C26.4445 31.1118 24.889 32.6674 18.6666 32.6674H9.33307C3.11071 32.6674 1.55512 31.1118 1.55512 24.8894V9.33356C1.55512 3.1112 3.11071 1.55561 9.33307 1.55561H18.6666C24.889 1.55561 26.4445 3.1112 26.4445 9.33356Z" stroke="#292D32" stroke-width="3.09859" stroke-linecap="round" stroke-linejoin="round"/>
<path d="M17.1111 7H10.8888" stroke="#292D32" stroke-width="2.32394" stroke-linecap="round" stroke-linejoin="round"/>
<path d="M14 28.156C15.3317 28.156 16.4112 27.0765 16.4112 25.7448C16.4112 24.4132 15.3317 23.3337 14 23.3337C12.6684 23.3337 11.5889 24.4132 11.5889 25.7448C11.5889 27.0765 12.6684 28.156 14 28.156Z" stroke="#292D32" stroke-width="2.32394" stroke-linecap="round" stroke-linejoin="round"/>
</svg>
