<svg width="87" height="36" viewBox="0 0 87 36" fill="none" xmlns="http://www.w3.org/2000/svg">
<g clip-path="url(#clip0_73_2752)">
<path d="M6.05305 14.044C6.05305 13.1111 6.81864 12.7521 8.08688 12.7521C9.90505 12.7521 12.2018 13.3025 14.0202 14.2834V8.66086C12.0344 7.87138 10.0726 7.56034 8.08688 7.56034C3.22991 7.56034 0 10.0965 0 14.3314C0 20.9345 9.09151 19.8819 9.09151 22.7291C9.09151 23.8295 8.13465 24.1885 6.79475 24.1885C4.80903 24.1885 2.27288 23.3749 0.263103 22.2744V27.9686C2.48821 28.9257 4.7372 29.3323 6.79475 29.3323C11.7712 29.3323 15.1925 26.8681 15.1925 22.5855C15.1686 15.4558 6.05305 16.7237 6.05305 14.044ZM22.2265 2.77536L16.3887 4.01938L16.3649 23.1835C16.3649 26.7246 19.0206 29.3323 22.5616 29.3323C24.5234 29.3323 25.9589 28.9734 26.7483 28.5428V23.686C25.9829 23.997 22.2026 25.0976 22.2026 21.5566V13.0631H26.7483V7.9671H22.2026L22.2265 2.77536ZM34.1892 9.7375L33.8064 7.9671H28.6385V28.9016H34.6199V14.7141C36.0313 12.8719 38.4239 13.2068 39.1656 13.4699V7.9671C38.4001 7.67994 35.6008 7.15357 34.1892 9.7375ZM40.625 7.9671H46.6303V28.9016H40.625V7.9671ZM40.625 6.14877L46.6303 4.8568V0L40.625 1.26807V6.14877ZM59.1192 7.56034C56.7745 7.56034 55.2672 8.66086 54.43 9.42662L54.1188 7.94321H48.8554V35.8399L54.8366 34.5719L54.8606 27.8011C55.7219 28.4232 56.9899 29.3084 59.0953 29.3084C63.378 29.3084 67.2778 25.8631 67.2778 18.2789C67.2539 11.3405 63.3062 7.56034 59.1192 7.56034ZM57.6838 24.0448C56.2722 24.0448 55.4346 23.5425 54.8606 22.9204L54.8366 14.044C55.4587 13.3503 56.32 12.8719 57.6838 12.8719C59.8609 12.8719 61.3682 15.3121 61.3682 18.4463C61.3682 21.6523 59.8848 24.0448 57.6838 24.0448ZM86.1308 18.5181C86.1308 12.3933 83.164 7.56034 77.4939 7.56034C71.7995 7.56034 68.3542 12.3934 68.3542 18.4704C68.3542 25.6717 72.4217 29.3084 78.2593 29.3084C81.1065 29.3084 83.2598 28.6624 84.8867 27.7533V22.9682C83.2599 23.7817 81.3936 24.2842 79.0251 24.2842C76.7042 24.2842 74.6467 23.4707 74.3836 20.6475H86.0831C86.0831 20.3363 86.1308 19.0923 86.1308 18.5181ZM74.3117 16.2453C74.3117 13.5417 75.9627 12.4171 77.47 12.4171C78.9293 12.4171 80.4846 13.5417 80.4846 16.2453H74.3117Z" fill="#9E9E9E"/>
</g>
<defs>
<clipPath id="clip0_73_2752">
<rect width="86.1308" height="36" fill="white"/>
</clipPath>
</defs>
</svg>
