<svg width="13" height="18" viewBox="0 0 13 18" fill="none" xmlns="http://www.w3.org/2000/svg">
<g clip-path="url(#clip0_0_329)">
<path d="M3.25033 18C5.04397 18 6.49968 16.656 6.49968 15V12H3.25033C1.45669 12 0.000976562 13.344 0.000976562 15C0.000976562 16.656 1.45669 18 3.25033 18Z" fill="#0ACF83"/>
<path d="M0.000976562 9C0.000976562 7.344 1.45669 6 3.25033 6H6.49968V12H3.25033C1.45669 12 0.000976562 10.656 0.000976562 9Z" fill="#A259FF"/>
<path d="M0.000976562 3C0.000976562 1.344 1.45669 0 3.25033 0H6.49968V6H3.25033C1.45669 6 0.000976562 4.656 0.000976562 3Z" fill="#F24E1E"/>
<path d="M6.5 0H9.74935C11.543 0 12.9987 1.344 12.9987 3C12.9987 4.656 11.543 6 9.74935 6H6.5V0Z" fill="#FF7262"/>
<path d="M12.9987 9C12.9987 10.656 11.543 12 9.74935 12C7.95571 12 6.5 10.656 6.5 9C6.5 7.344 7.95571 6 9.74935 6C11.543 6 12.9987 7.344 12.9987 9Z" fill="#1ABCFE"/>
</g>
<defs>
<clipPath id="clip0_0_329">
<rect width="13" height="18" fill="white"/>
</clipPath>
</defs>
</svg>
