<svg width="21" height="25" viewBox="0 0 21 25" fill="none" xmlns="http://www.w3.org/2000/svg">
<path fill-rule="evenodd" clip-rule="evenodd" d="M19.3483 21.4495C20.0858 20.3246 20.3608 19.7496 20.9232 18.4871C16.7733 16.9121 16.1109 10.9998 20.2108 8.73731C18.9608 7.16234 17.1983 6.24987 15.5359 6.24987C14.3359 6.24987 13.5109 6.56238 12.7734 6.84987C12.1484 7.08737 11.586 7.29985 10.886 7.29985C10.136 7.29985 9.4735 7.06237 8.77352 6.81238C8.01103 6.53738 7.21105 6.24987 6.21107 6.24987C4.34861 6.24987 2.36116 7.38735 1.09869 9.33731C-0.676269 12.0872 -0.363773 17.2371 2.49866 21.637C3.52364 23.212 4.89861 24.9745 6.68607 24.9995C7.43605 25.012 7.92354 24.787 8.46102 24.5495C9.07351 24.2745 9.73599 23.9745 10.8985 23.9745C12.0609 23.962 12.7109 24.2745 13.3234 24.5495C13.8484 24.787 14.3234 25.012 15.0609 24.9995C16.8733 24.9745 18.3233 23.0245 19.3483 21.4495Z" fill="black"/>
<path fill-rule="evenodd" clip-rule="evenodd" d="M15.2736 0C15.4736 1.37497 14.9111 2.73745 14.1736 3.68743C13.3861 4.71241 12.0111 5.51237 10.6862 5.46237C10.4487 4.1374 11.0612 2.77493 11.8111 1.86245C12.6486 0.862468 14.0611 0.087498 15.2736 0Z" fill="black"/>
</svg>
