<svg width="18" height="18" viewBox="0 0 18 18" fill="none" xmlns="http://www.w3.org/2000/svg">
<path fill-rule="evenodd" clip-rule="evenodd" d="M12 4.5C11.5858 4.5 11.25 4.83579 11.25 5.25C11.25 5.66421 11.5858 6 12 6H13.9393L9.75 10.1893L7.81066 8.25C7.22487 7.66421 6.27513 7.66421 5.68934 8.25L1.71967 12.2197C1.42678 12.5126 1.42678 12.9874 1.71967 13.2803C2.01256 13.5732 2.48744 13.5732 2.78033 13.2803L6.75 9.31066L8.68934 11.25C9.27513 11.8358 10.2249 11.8358 10.8107 11.25L15 7.06066V9C15 9.41421 15.3358 9.75 15.75 9.75C16.1642 9.75 16.5 9.41421 16.5 9V5.25C16.5 4.83579 16.1642 4.5 15.75 4.5H12Z" fill="#14C38A"/>
</svg>
