<svg width="38" height="38" viewBox="0 0 38 38" fill="none" xmlns="http://www.w3.org/2000/svg">
<path d="M34.8334 19H25.3334L22.1667 23.75H15.8334L12.6667 19H3.16671" stroke="#25282B" stroke-width="3.09859" stroke-linecap="round" stroke-linejoin="round"/>
<path d="M8.62921 8.09092L3.16671 19.0001V28.5001C3.16671 29.3399 3.50034 30.1454 4.0942 30.7392C4.68807 31.3331 5.49352 31.6667 6.33337 31.6667H31.6667C32.5066 31.6667 33.312 31.3331 33.9059 30.7392C34.4997 30.1454 34.8334 29.3399 34.8334 28.5001V19.0001L29.3709 8.09092C29.1087 7.56333 28.7046 7.11934 28.2039 6.80886C27.7032 6.49838 27.1258 6.33373 26.5367 6.33342H11.4634C10.8742 6.33373 10.2969 6.49838 9.79619 6.80886C9.29551 7.11934 8.89137 7.56333 8.62921 8.09092V8.09092Z" stroke="#25282B" stroke-width="3.09859" stroke-linecap="round" stroke-linejoin="round"/>
</svg>
