<svg width="40" height="40" viewBox="0 0 40 40" fill="none" xmlns="http://www.w3.org/2000/svg">
<path d="M15.378 23.2352C15.378 25.0285 16.7646 26.4705 18.4654 26.4705H21.941C23.42 26.4705 24.6216 25.2133 24.6216 23.6419C24.6216 21.9596 23.8822 21.3495 22.7914 20.9613L17.2267 19.0201C16.136 18.6319 15.3965 18.0403 15.3965 16.3395C15.3965 14.7865 16.5982 13.5109 18.0771 13.5109H21.5528C23.2536 13.5109 24.6402 14.9529 24.6402 16.7462" stroke="#292D32" stroke-width="3" stroke-linecap="round" stroke-linejoin="round"/>
<path d="M19.9995 11.6807V28.3193" stroke="#292D32" stroke-width="3" stroke-linecap="round" stroke-linejoin="round"/>
<path d="M38.4871 19.9998C38.4871 30.2048 30.2048 38.4871 19.9998 38.4871C9.79488 38.4871 1.51259 30.2048 1.51259 19.9998C1.51259 9.79488 9.79488 1.51259 19.9998 1.51259" stroke="#292D32" stroke-width="3" stroke-linecap="round" stroke-linejoin="round"/>
<path d="M38.4868 8.90749V1.51259H31.0919" stroke="#292D32" stroke-width="3" stroke-linecap="round" stroke-linejoin="round"/>
<path d="M29.2435 10.7562L38.4871 1.51259" stroke="#292D32" stroke-width="3" stroke-linecap="round" stroke-linejoin="round"/>
</svg>
