<svg width="38" height="41" viewBox="0 0 38 41" fill="none" xmlns="http://www.w3.org/2000/svg">
<path d="M36.5 8.83333V13.27C36.5 16.1667 34.75 18 31.985 18H26V5.185C26 3.15 27.5925 1.5 29.535 1.5C31.4425 1.51833 33.1925 2.325 34.4525 3.645C35.7125 4.98333 36.5 6.81667 36.5 8.83333Z" stroke="#292D32" stroke-width="3" stroke-miterlimit="10" stroke-linecap="round" stroke-linejoin="round"/>
<path d="M1.5 10.6667V36.3333C1.5 37.855 3.14496 38.7167 4.29996 37.8L7.2925 35.4533C7.9925 34.9033 8.97251 34.9767 9.60251 35.6367L12.5075 38.6983C13.19 39.4133 14.31 39.4133 14.9925 38.6983L17.9325 35.6183C18.545 34.9767 19.525 34.9033 20.2075 35.4533L23.2 37.8C24.355 38.6983 26 37.8367 26 36.3333V5.16667C26 3.15 27.575 1.5 29.5 1.5H10.25H8.5C3.25 1.5 1.5 4.78167 1.5 8.83333V10.6667Z" stroke="#292D32" stroke-width="3" stroke-miterlimit="10" stroke-linecap="round" stroke-linejoin="round"/>
<path d="M8.5 14.3335H19" stroke="#292D32" stroke-width="3" stroke-linecap="round" stroke-linejoin="round"/>
<path d="M9.8125 21.667H17.6875" stroke="#292D32" stroke-width="3" stroke-linecap="round" stroke-linejoin="round"/>
</svg>
