<svg width="169" height="36" viewBox="0 0 169 36" fill="none" xmlns="http://www.w3.org/2000/svg">
<path d="M67.2118 18.8567L64.2946 11.0919C64.2676 11.0219 64.2201 10.9617 64.1583 10.9193C64.0964 10.8769 64.0232 10.8542 63.9482 10.8542C63.8732 10.8542 63.8 10.8769 63.7382 10.9193C63.6764 10.9617 63.6289 11.0219 63.6019 11.0919L60.6846 18.8579C60.6644 18.913 60.658 18.9722 60.6658 19.0303C60.6737 19.0885 60.6957 19.1439 60.7298 19.1916C60.764 19.2394 60.8093 19.278 60.8618 19.3043C60.9143 19.3305 60.9724 19.3434 61.031 19.342H66.8903C66.9776 19.343 67.0619 19.3109 67.1264 19.2522C67.1908 19.1934 67.2307 19.1124 67.2379 19.0255C67.2433 18.9684 67.2344 18.9108 67.2118 18.8579V18.8567ZM68.5711 23.2139H59.3253C59.25 23.2144 59.1764 23.2379 59.1145 23.2811C59.0527 23.3243 59.0054 23.3853 58.979 23.456L57.1492 28.2998C57.1229 28.3703 57.0758 28.4312 57.0143 28.4744C56.9527 28.5177 56.8794 28.5412 56.8041 28.5419H52.7957C52.7345 28.5428 52.674 28.5284 52.6198 28.5001C52.5655 28.4716 52.5192 28.4303 52.485 28.3795C52.4507 28.3288 52.4296 28.2703 52.4236 28.2093C52.4177 28.1484 52.4269 28.0869 52.4506 28.0305L61.6715 5.39641C61.6991 5.32792 61.7475 5.26982 61.8098 5.23039C61.8723 5.19095 61.9455 5.17215 62.0191 5.17668H65.85C65.9228 5.17713 65.9939 5.19796 66.0553 5.2368C66.1168 5.27565 66.1661 5.33094 66.1976 5.39641L75.4173 28.0305C75.441 28.0871 75.4504 28.1488 75.4443 28.2098C75.4382 28.2709 75.417 28.3295 75.3827 28.3804C75.3483 28.4312 75.3019 28.4728 75.2474 28.5012C75.193 28.5296 75.1324 28.544 75.071 28.5431H71.0688C70.9932 28.5425 70.9196 28.5189 70.8577 28.4755C70.7959 28.432 70.7488 28.3708 70.7224 28.2998L68.8926 23.456C68.8753 23.3846 68.8338 23.3214 68.7752 23.2771C68.7166 23.2328 68.6446 23.2101 68.5711 23.2127V23.2139ZM77.3228 13.1116H80.7602C80.8573 13.1134 80.9499 13.1525 81.0189 13.2207C81.0881 13.2887 81.1283 13.3808 81.1314 13.4778V28.1794C81.1283 28.2762 81.0879 28.368 81.0188 28.4358C80.9497 28.5034 80.8571 28.5419 80.7602 28.5431H77.3241C77.2271 28.5423 77.1343 28.5039 77.0649 28.4361C76.9955 28.3684 76.9549 28.2764 76.9517 28.1794V13.4778C76.9512 13.429 76.9605 13.3807 76.9791 13.3356C76.9977 13.2906 77.0253 13.2497 77.06 13.2155C77.0948 13.1813 77.1361 13.1545 77.1815 13.1366C77.2269 13.1188 77.2754 13.1102 77.3241 13.1116H77.3228ZM93.642 16.6892C93.6392 16.7864 93.5991 16.8788 93.5299 16.9472C93.4609 17.0156 93.3682 17.0548 93.2708 17.0567H93.1715C91.4659 17.0567 90.2295 17.444 89.4387 18.2484C88.6479 19.0528 88.252 20.3662 88.252 22.2133V28.1533C88.2489 28.2502 88.2088 28.342 88.14 28.4102C88.0712 28.4782 87.9788 28.5174 87.882 28.5196H84.4931C84.3964 28.5174 84.304 28.4782 84.2352 28.4102C84.1664 28.342 84.1263 28.2502 84.1231 28.1533V13.4778C84.1263 13.3808 84.1666 13.2887 84.2357 13.2207C84.3047 13.1525 84.3973 13.1134 84.4943 13.1116H87.856C87.9533 13.1132 88.0461 13.152 88.1155 13.2202C88.1848 13.2883 88.2253 13.3806 88.2284 13.4778V16.3739H88.3016C88.645 15.2738 89.3179 14.3058 90.2295 13.6007C91.1823 12.9286 92.329 12.5867 93.4943 12.6274H93.6668V16.6905H93.642V16.6892ZM103.012 16.5452C102.916 16.5468 102.823 16.5852 102.755 16.6527C102.686 16.7201 102.645 16.8114 102.642 16.9077V23.0178C102.596 23.4957 102.728 23.9724 103.012 24.3585C103.26 24.6241 103.68 24.7458 104.298 24.7458H104.644C104.741 24.748 104.833 24.7871 104.902 24.8553C104.971 24.9234 105.011 25.0153 105.014 25.112V28.1782C105.011 28.2748 104.971 28.3664 104.902 28.434C104.833 28.5018 104.741 28.5404 104.644 28.5419H103.187C101.677 28.5419 100.517 28.1521 99.7012 27.3973C98.8844 26.6202 98.4896 25.4993 98.4896 23.9674V16.9077C98.4861 16.811 98.4455 16.7194 98.3761 16.6518C98.3067 16.5843 98.214 16.5461 98.1172 16.5452H95.9671C95.8702 16.5431 95.7777 16.5037 95.7089 16.4353C95.64 16.3669 95.6 16.2747 95.5972 16.1778V13.4778C95.6 13.3809 95.6401 13.2888 95.7089 13.2207C95.7778 13.1525 95.8703 13.1134 95.9671 13.1116H98.1184C98.2153 13.1103 98.3079 13.0718 98.377 13.0042C98.4462 12.9364 98.4865 12.8447 98.4896 12.7478V7.29448C98.4928 7.19775 98.5332 7.10596 98.6023 7.03822C98.6715 6.97046 98.7641 6.93198 98.8608 6.93075H102.297C102.394 6.93198 102.486 6.97046 102.555 7.03822C102.625 7.10596 102.665 7.19775 102.668 7.29448V12.7478C102.671 12.8447 102.712 12.9364 102.781 13.0042C102.85 13.0718 102.943 13.1103 103.039 13.1116H105.511C105.608 13.1134 105.701 13.1525 105.77 13.2207C105.839 13.2887 105.879 13.3808 105.882 13.4778V16.1778C105.879 16.275 105.839 16.3673 105.77 16.4357C105.701 16.5041 105.608 16.5433 105.511 16.5452H103.012ZM118.712 23.9438C119.107 23.5256 119.414 23.0319 119.613 22.4922C119.813 21.9524 119.902 21.3779 119.874 20.8031C119.896 20.229 119.804 19.6561 119.605 19.1172C119.406 18.5783 119.102 18.084 118.712 17.6625C117.875 16.8961 116.781 16.4711 115.646 16.4711C114.511 16.4711 113.418 16.8961 112.58 17.6625C112.185 18.0807 111.878 18.5745 111.679 19.1141C111.479 19.6539 111.391 20.2284 111.419 20.8031C111.397 21.3773 111.488 21.9502 111.687 22.4891C111.887 23.0279 112.19 23.5223 112.58 23.9438C112.982 24.3433 113.461 24.6554 113.989 24.8605C114.517 25.0655 115.081 25.1593 115.647 25.1356C116.213 25.1671 116.78 25.0771 117.309 24.8716C117.838 24.6661 118.316 24.3498 118.713 23.9438H118.712ZM110.799 28.0578C109.638 27.3996 108.694 26.4179 108.081 25.2324C107.429 23.8465 107.091 22.3339 107.091 20.8025C107.091 19.2712 107.429 17.7587 108.081 16.3727C108.701 15.1929 109.644 14.2135 110.799 13.5485C111.96 12.8952 113.273 12.5595 114.605 12.5753C115.694 12.5486 116.773 12.7917 117.746 13.2829C118.606 13.7381 119.324 14.4203 119.823 15.2554H119.897V13.4505C119.901 13.354 119.941 13.2626 120.01 13.195C120.079 13.1273 120.171 13.0886 120.267 13.0867H123.655C123.752 13.0883 123.844 13.1268 123.913 13.1946C123.982 13.2623 124.023 13.3539 124.026 13.4505V28.1509C124.023 28.2483 123.983 28.3408 123.914 28.4093C123.844 28.4777 123.751 28.5168 123.654 28.5183H120.27C120.172 28.5165 120.08 28.4772 120.011 28.4088C119.942 28.3404 119.901 28.2481 119.898 28.1509V26.3509H119.824C119.325 27.1868 118.606 27.8696 117.746 28.3247C116.773 28.814 115.694 29.0566 114.605 29.031C113.273 29.0469 111.96 28.7112 110.799 28.0578ZM138.144 23.9438C138.539 23.5256 138.846 23.0318 139.046 22.492C139.245 21.9524 139.334 21.3779 139.306 20.8031C139.329 20.229 139.237 19.6561 139.038 19.1172C138.838 18.5783 138.534 18.084 138.144 17.6625C137.308 16.8958 136.213 16.4705 135.078 16.4705C133.944 16.4705 132.849 16.8958 132.012 17.6625C131.617 18.0809 131.311 18.5747 131.111 19.1144C130.912 19.6541 130.823 20.2285 130.851 20.8031C130.829 21.3773 130.921 21.9502 131.119 22.4891C131.319 23.0279 131.622 23.5223 132.013 23.9438C132.414 24.3433 132.893 24.6554 133.422 24.8605C133.95 25.0655 134.513 25.1593 135.079 25.1356C135.645 25.167 136.213 25.0768 136.742 24.8714C137.27 24.6658 137.748 24.3496 138.146 23.9438H138.144ZM133.003 28.3234C132.142 27.8681 131.424 27.1853 130.924 26.3496H130.85V28.1521C130.846 28.2489 130.807 28.3408 130.738 28.4089C130.669 28.477 130.577 28.5162 130.48 28.5183H127.043C126.946 28.5162 126.854 28.477 126.784 28.4089C126.716 28.3408 126.675 28.2489 126.673 28.1521V5.51682C126.675 5.42018 126.716 5.32844 126.784 5.26053C126.854 5.19261 126.946 5.15372 127.043 5.15186H130.48C130.577 5.15338 130.669 5.19198 130.738 5.25966C130.808 5.32734 130.848 5.41895 130.851 5.51558V15.2778H130.926C131.425 14.4431 132.144 13.7605 133.003 13.304C133.976 12.8149 135.053 12.5723 136.142 12.5976C137.474 12.5816 138.787 12.9186 139.948 13.5746C141.109 14.2315 142.053 15.212 142.667 16.3962C143.362 17.7666 143.702 19.2895 143.657 20.8255C143.688 22.3605 143.349 23.8801 142.668 25.256C142.047 26.4365 141.104 27.416 139.949 28.0801C138.787 28.7336 137.474 29.0694 136.142 29.0533C135.052 29.0623 133.975 28.8113 133.001 28.3209L133.003 28.3234ZM149.443 28.5208H146.008C145.912 28.5193 145.819 28.4802 145.749 28.4117C145.68 28.3432 145.64 28.2507 145.637 28.1533V5.51806C145.641 5.421 145.681 5.3289 145.75 5.26092C145.82 5.19295 145.913 5.15433 146.01 5.1531H149.445C149.541 5.15524 149.633 5.19406 149.702 5.26164C149.77 5.32924 149.811 5.4205 149.815 5.51682V28.1521C149.816 28.2235 149.796 28.2935 149.757 28.3535C149.719 28.4134 149.663 28.4605 149.597 28.4885C149.549 28.5095 149.497 28.5197 149.445 28.5183V28.5208H149.443ZM157.528 16.6669C156.93 17.1444 156.519 17.8166 156.367 18.5662C156.355 18.6203 156.358 18.6762 156.372 18.7295C156.385 18.7829 156.411 18.8326 156.447 18.8747C156.482 18.9167 156.527 18.9503 156.578 18.9727C156.627 18.9952 156.683 19.006 156.738 19.0044H163.265C163.317 19.0046 163.369 18.9936 163.418 18.9722C163.466 18.9509 163.508 18.9196 163.543 18.8804C163.579 18.8413 163.605 18.7951 163.621 18.7451C163.637 18.6949 163.642 18.642 163.636 18.5898C163.537 17.8622 163.176 17.1957 162.621 16.7153C161.906 16.1467 161.012 15.8525 160.099 15.886C159.181 15.8612 158.278 16.1343 157.528 16.6656L157.527 16.6669H157.528ZM165.885 14.7688C167.22 16.2026 167.888 18.2298 167.887 20.8516V21.2922C167.883 21.3889 167.843 21.4806 167.774 21.5482C167.704 21.6159 167.612 21.6545 167.515 21.656H156.615C156.56 21.6571 156.507 21.6696 156.458 21.6928C156.409 21.7161 156.365 21.7494 156.331 21.7907C156.295 21.832 156.268 21.8803 156.254 21.9324C156.239 21.9846 156.235 22.0392 156.242 22.0929C156.384 23.0046 156.849 23.8346 157.555 24.4305C158.42 25.1074 159.499 25.4522 160.596 25.4025C162.235 25.3796 163.802 24.726 164.972 23.5776C165.01 23.5424 165.056 23.5161 165.106 23.5005C165.157 23.485 165.209 23.4807 165.261 23.4877C165.313 23.4948 165.363 23.5132 165.406 23.5416C165.451 23.5701 165.488 23.6078 165.516 23.6521L167.172 26.012C167.219 26.0873 167.24 26.1761 167.23 26.2645C167.221 26.3527 167.183 26.4357 167.122 26.4998C166.3 27.2005 165.395 27.7974 164.428 28.2775C163.223 28.8149 161.914 29.0807 160.595 29.0558C159.049 29.091 157.519 28.7389 156.144 28.0317C154.905 27.3808 153.883 26.3831 153.202 25.1604C152.482 23.8492 152.116 22.3732 152.14 20.8776C152.112 19.3795 152.461 17.8986 153.154 16.57C153.803 15.3514 154.79 14.346 155.997 13.6751C157.308 12.9602 158.781 12.5991 160.274 12.6274C162.696 12.5989 164.551 13.33 165.885 14.7676V14.7688ZM81.5758 7.66317C81.5829 8.16194 81.442 8.65161 81.1708 9.07028C80.8995 9.48895 80.5103 9.8178 80.0523 10.0153C79.5942 10.2128 79.0878 10.27 78.5972 10.1798C78.1067 10.0895 77.6538 9.85583 77.296 9.50825C76.9383 9.16069 76.6915 8.71484 76.5871 8.22708C76.4826 7.73931 76.5251 7.23153 76.7092 6.76792C76.8933 6.3043 77.2108 5.9057 77.6214 5.62246C78.032 5.33923 78.5174 5.18411 79.0161 5.17668H79.0285C79.694 5.1736 80.3339 5.43217 80.8105 5.89661C81.2869 6.36106 81.5619 6.99417 81.5758 7.65944V7.66192V7.66317Z" fill="#9E9E9E"/>
<path d="M19.65 0.441589L4.05343 6.89514C3.18635 7.25432 3.19509 8.48626 4.06809 8.83219L19.7297 15.0429C21.1057 15.5886 22.6382 15.5886 24.0143 15.0429L39.676 8.83219C40.5486 8.48626 40.5578 7.25432 39.6903 6.89538L24.0941 0.441589C22.6712 -0.147196 21.0728 -0.147196 19.65 0.441589Z" fill="#9E9E9E"/>
<path d="M23.2617 18.4339V33.9494C23.2617 34.687 24.0058 35.1927 24.6918 34.9207L42.1436 28.1467C42.3382 28.0696 42.5052 27.9358 42.6228 27.7625C42.7404 27.5893 42.8033 27.3848 42.8033 27.1755V11.6602C42.8033 10.9222 42.0592 10.4169 41.3732 10.6888L23.9214 17.4628C23.7267 17.54 23.5599 17.6738 23.4422 17.8471C23.3247 18.0203 23.2617 18.2247 23.2617 18.4342" fill="#9E9E9E"/>
<path d="M19.1857 19.2343L14.0065 21.7351L13.4806 21.9893L2.54735 27.2279C1.85454 27.5622 0.969727 27.0572 0.969727 26.2873V11.725C0.969727 11.4465 1.11255 11.206 1.30407 11.0251C1.38264 10.9469 1.47179 10.88 1.5689 10.8265C1.82995 10.6697 2.2026 10.6279 2.51945 10.7532L19.0987 17.3223C19.9415 17.6566 20.0077 18.8376 19.1857 19.2346" fill="#9E9E9E"/>
<path d="M19.1863 19.2343L14.007 21.7351L1.30469 11.0249C1.38328 10.9467 1.47242 10.8799 1.56952 10.8265C1.83056 10.6697 2.20322 10.6279 2.52007 10.7532L19.0994 17.3223C19.942 17.6566 20.0082 18.8376 19.1863 19.2346" fill="#9E9E9E"/>
</svg>
