<svg width="199" height="36" viewBox="0 0 199 36" fill="none" xmlns="http://www.w3.org/2000/svg">
<g clip-path="url(#clip0_73_2806)">
<path d="M4.10071 28.4543C3.372 28.4559 2.65592 28.264 2.02563 27.8982C1.39534 27.5325 0.873436 27.006 0.513233 26.3725C0.158545 25.7435 -0.0183473 25.0299 0.00150478 24.308C0.0213568 23.5862 0.237205 22.8834 0.62593 22.2748L8.01377 10.6734C8.3919 10.0499 8.92872 9.53791 9.56944 9.18977C10.2102 8.84162 10.9318 8.6698 11.6607 8.69182C12.389 8.70927 13.0996 8.91993 13.7198 9.30221C14.34 9.68449 14.8475 10.2247 15.1903 10.8675C15.879 12.1698 15.7929 13.7365 14.968 14.959L7.5849 26.5604C7.21046 27.1438 6.69486 27.6232 6.08578 27.9543C5.4767 28.2854 4.79393 28.4573 4.10071 28.4543Z" fill="#9E9E9E"/>
<path d="M16.7729 28.4542C15.2829 28.4542 13.9117 27.6576 13.1917 26.3772C12.8378 25.7499 12.6613 25.0381 12.6812 24.3182C12.701 23.5982 12.9165 22.8973 13.3044 22.2904L20.6782 10.7156C21.0507 10.0833 21.5856 9.56228 22.2274 9.20643C22.8693 8.85054 23.5946 8.67287 24.3282 8.6918C25.8309 8.72466 27.1926 9.5652 27.8813 10.88C28.5653 12.1948 28.4651 13.7709 27.6152 14.9902L20.243 26.565C19.8698 27.146 19.3562 27.6236 18.7497 27.9537C18.1433 28.2839 17.4634 28.4561 16.7729 28.4542Z" fill="#9E9E9E"/>
<path d="M29.1609 28.5513C31.2615 28.5513 32.9644 26.8842 32.9644 24.8277C32.9644 22.7711 31.2615 21.104 29.1609 21.104C27.0603 21.104 25.3574 22.7711 25.3574 24.8277C25.3574 26.8842 27.0603 28.5513 29.1609 28.5513Z" fill="#9E9E9E"/>
<path d="M194.395 21.3197C195.544 21.3197 196.231 22.1367 196.231 23.475V28.0611H197.791V23.3701C197.791 21.0943 196.719 19.7748 194.703 19.7748C193.914 19.7748 192.662 19.9908 191.916 21.4418C191.742 21.0138 191.456 20.6408 191.087 20.3625C190.719 20.0841 190.282 19.9108 189.823 19.8609C189.534 19.808 189.239 19.7906 188.946 19.8093C188.305 19.8609 187.162 20.26 186.735 21.1647V19.9486H185.173V28.0611H186.735V23.6832C186.735 21.9802 187.849 21.3197 188.965 21.3197C190.011 21.3197 190.698 22.1195 190.698 23.4578V28.0611H192.251V23.6832C192.251 22.3277 193.064 21.304 194.395 21.3197ZM179.439 26.7056C180.153 26.7213 180.842 26.4364 181.341 25.9199C181.842 25.4034 182.108 24.7006 182.081 23.979C182.081 22.3449 180.879 21.3197 179.439 21.3197C177.998 21.3197 176.797 22.3449 176.797 23.979C176.769 24.699 177.035 25.4002 177.533 25.9152C178.031 26.4317 178.716 26.7181 179.427 26.7056H179.439ZM179.439 28.227C177.157 28.227 175.252 26.5413 175.252 23.9696C175.252 21.398 177.157 19.7654 179.439 19.7654C181.721 19.7654 183.642 21.398 183.642 23.9696C183.642 26.5413 181.71 28.2348 179.428 28.2348L179.439 28.227ZM167.215 23.9696L167.199 23.979C167.199 21.4074 169.154 19.7748 171.452 19.7654C172.029 19.7542 172.602 19.8644 173.134 20.0887C173.666 20.313 174.145 20.6466 174.54 21.0677L173.357 22.0757C173.105 21.8289 172.808 21.6343 172.481 21.5032C172.154 21.3721 171.804 21.3071 171.452 21.3119C170.012 21.3119 168.76 22.3371 168.76 23.9696C168.76 25.0731 169.416 26.067 170.422 26.4896C171.428 26.9122 172.587 26.6774 173.357 25.898L174.557 26.906C174.161 27.3314 173.68 27.6689 173.145 27.8964C172.61 28.124 172.033 28.2366 171.452 28.227C169.171 28.227 167.215 26.5413 167.215 23.9696ZM162.217 26.5037C162.215 26.3619 162.242 26.2211 162.294 26.0894C162.347 25.9578 162.425 25.8378 162.524 25.7363C162.623 25.6349 162.742 25.5539 162.872 25.4981C163.003 25.4424 163.143 25.4128 163.285 25.4112C163.426 25.4128 163.567 25.4424 163.697 25.4981C163.827 25.5539 163.945 25.6349 164.044 25.7363C164.144 25.8378 164.222 25.9578 164.274 26.0894C164.327 26.2211 164.354 26.3619 164.352 26.5037C164.338 26.7784 164.22 27.0374 164.022 27.2279C163.823 27.4184 163.559 27.5261 163.285 27.5289C163.009 27.5261 162.746 27.4184 162.548 27.2279C162.349 27.0374 162.231 26.7784 162.217 26.5037Z" fill="#9E9E9E"/>
<path fill-rule="evenodd" clip-rule="evenodd" d="M166.487 9.63546H160.929L157.033 19.6795L153.158 9.63546H147.6L154.357 25.5068L150.154 36H155.672L166.487 9.63546ZM132.685 18.4633C132.685 20.999 134.901 22.6675 137.078 22.6675C139.218 22.6675 141.32 21.1148 141.32 18.4617C141.32 15.8087 139.218 14.2544 137.078 14.2544C134.901 14.2544 132.685 15.9245 132.685 18.4617V18.4633ZM141.32 27.3256V25.3174C140.193 27.0235 137.564 27.6683 136.214 27.6683C131.747 27.6683 127.279 24.1466 127.279 18.4617C127.279 12.7784 131.746 9.2567 136.214 9.2567C137.34 9.2567 139.969 9.63233 141.32 11.6045V9.64173H146.501V27.3287L141.32 27.3271V27.3256ZM125.804 27.3256H120.623V25.128C119.758 26.7558 117.659 27.7043 115.48 27.7043C110.974 27.7043 106.993 24.1059 106.993 18.5337C106.993 12.8567 110.974 9.25357 115.48 9.25357C117.656 9.25357 119.761 10.1614 120.623 11.7908V0H125.804V27.3256ZM120.511 18.4226C120.511 15.7711 118.596 14.2169 116.457 14.2169C114.24 14.2169 112.4 15.8838 112.4 18.4226C112.4 21.0428 114.24 22.7019 116.455 22.7019C118.636 22.705 120.511 20.9614 120.511 18.4226ZM94.1837 17.9656C94.1837 15.2765 95.5737 14.3671 97.4127 14.3671C99.1767 14.3671 100.454 15.541 100.454 17.8889V27.3224H105.672V16.7541C105.672 11.7172 103.193 9.25357 99.2504 9.25357C97.1857 9.25357 95.1214 10.4275 94.182 12.2087V9.63546H88.9667V27.3224H94.1837V17.9656ZM78.3704 27.6261C73.4147 27.6261 69.281 23.9901 69.281 18.421C69.281 12.8489 73.41 9.24887 78.3704 9.24887C83.3304 9.24887 87.4958 12.8489 87.4958 18.421C87.4958 23.9932 83.3257 27.6277 78.3704 27.6277V27.6261ZM78.3704 22.4765C80.5461 22.4765 82.3507 20.8831 82.3507 18.4226C82.3507 16.0357 80.5478 14.4063 78.3704 14.4063C77.8461 14.3981 77.3256 14.4966 76.8406 14.696C76.3557 14.8954 75.9165 15.1915 75.5497 15.5661C75.1808 15.9427 74.8915 16.3897 74.6984 16.8804C74.5057 17.3711 74.4138 17.8956 74.4278 18.4226C74.429 20.8863 76.2307 22.4765 78.3704 22.4765ZM59.9257 14.3687C61.4644 14.3687 62.8167 15.5817 62.8167 17.8904V27.3256H67.9977V17.28C67.9977 11.9395 65.4011 9.25043 61.2391 9.25043C60.0024 9.25043 57.6734 9.6261 55.9831 12.3934C55.0064 10.3477 53.1297 9.28643 50.3561 9.28643C49.3929 9.28152 48.4493 9.55406 47.637 10.0714C46.8247 10.5889 46.1788 11.3292 45.7764 12.204V9.63703H40.5547V27.324H45.7718V17.9656C45.7718 15.2765 47.2368 14.3671 48.8127 14.3671C50.3154 14.3671 51.6648 15.541 51.7037 17.7762V27.324H56.922V17.9656C56.922 15.3939 58.2744 14.3703 59.9257 14.3703V14.3687Z" fill="#9E9E9E"/>
</g>
<defs>
<clipPath id="clip0_73_2806">
<rect width="198.212" height="36" fill="white"/>
</clipPath>
</defs>
</svg>
